{"title":"Annihilation 2018 BRRip 480p x264 [Eng] YsB TeaM Fl & SSX","magnet":"magnet:?xt=urn:btih:7cd4d031eba412f4625709e86eacf8afee0db4ac&dn=Annihilation+2018+BRRip+480p+x264+%5BEng%5D+YsB+TeaM+Fl+%26amp%3B+SSX&tr=udp%3A%2F%2Ftracker.leechers-paradise.org%3A6969&tr=udp%3A%2F%2Fzer0day.ch%3A1337&tr=udp%3A%2F%2Fopen.demonii.com%3A1337&tr=udp%3A%2F%2Ftracker.coppersurfer.tk%3A6969&tr=udp%3A%2F%2Fexodus.desync.com%3A6969","uploader":"Dj_YsB","categoryP":"video","categoryS":"movies","size":"447921712","seeders":"17","leechers":"9","description":"Annihilation 2018 BRRip 480p x264 [Eng] YsB TeaM Fl &amp; SSX\r\n\r\nInfo:\r\nGeneral\r\nComplete name               : Annihilation 2018 BRRip 480p x264 [Eng] YsB TeaM Fl &amp; SSX.mkv\r\nFormat                      : Matroska\r\nFormat version              : Version 4 / Version 2\r\nFile size                   : 424 MiB\r\nDuration                    : 1 h 55 min\r\nOverall bit rate            : 516 kb/s\r\n\r\nVideo\r\nID                          : 1\r\nFormat                      : AVC\r\nFormat/Info                 : Advanced Video Codec\r\nFormat profile              : High@L4.1\r\nDuration                    : 1 h 55 min\r\nBit rate                    : 450 kb/s\r\nWidth                       : 848 pixels\r\nHeight                      : 352 pixels\r\nDisplay aspect ratio        : 2.40:1\r\nFrame rate mode             : Constant\r\nFrame rate                  : 23.976 (24000/1001) FPS\r\nColor space                 : YUV\r\nBit depth                   : 8 bits\r\nStream size                 : 370 MiB (87%)\r\n\r\n\r\nAudio #1\r\nID                          : 2\r\nFormat                      : AC-3\r\nFormat/Info                 : Audio Coding 3\r\nDuration                    : 1 h 55 min\r\nBit rate mode               : Constant\r\nBit rate                    : 64.0 kb/s\r\nChannel(s)                  : 2 channels\r\nChannel positions           : Front: L R\r\nSampling rate               : 48.0 kHz\r\nBit depth                   : 16 bits\r\nCompression mode            : Lossy\r\nStream size                 : 52.6 MiB (12%)\r\nTitle                       : YsB TeaM Fl\r\nLanguage                    : English\r\n\r\n\r\nScreenshot: <a href=\"\nhttps://i.imgur.com/qOfKGmq.jpg\" rel=\"nofollow\" target=\"_NEW\">\nhttps://i.imgur.com/qOfKGmq.jpg</a> <a href=\"\nhttps://i.imgur.com/jpGN9Qv.jpg\" rel=\"nofollow\" target=\"_NEW\">\nhttps://i.imgur.com/jpGN9Qv.jpg</a> <a href=\"\nhttps://i.imgur.com/yVu7sGW.jpg\" rel=\"nofollow\" target=\"_NEW\">\nhttps://i.imgur.com/yVu7sGW.jpg</a>\r\n\r\nThanks.\r\nTeaM FL , TeaM SSX, AnantaRdp\r\n\r\nEncoded and Seeding Through AnantaRdp Rdp","last_updated":"2018-06-03T12:14:12.925Z","parsed":{"xt":"urn:btih:7cd4d031eba412f4625709e86eacf8afee0db4ac","dn":"Annihilation 2018 BRRip 480p x264 [Eng] YsB TeaM Fl &amp; SSX","tr":["udp://exodus.desync.com:6969","udp://open.demonii.com:1337","udp://tracker.coppersurfer.tk:6969","udp://tracker.leechers-paradise.org:6969","udp://zer0day.ch:1337"],"infoHash":"7cd4d031eba412f4625709e86eacf8afee0db4ac","infoHashBuffer":{"type":"Buffer","data":[124,212,208,49,235,164,18,244,98,87,9,232,110,172,248,175,238,13,180,172]},"name":"Annihilation 2018 BRRip 480p x264 [Eng] YsB TeaM Fl &amp; SSX","announce":["udp://exodus.desync.com:6969","udp://open.demonii.com:1337","udp://tracker.coppersurfer.tk:6969","udp://tracker.leechers-paradise.org:6969","udp://zer0day.ch:1337"],"urlList":[]}}